# Blender 3.5.1
# www.blender.org
mtllib NewTree.mtl
o Circle_Circle.001
v -0.000009 0.009464 -1.070461
v -0.500000 -0.000000 -0.866025
v -0.835174 -0.003971 -0.478411
v -1.046090 0.003081 -0.000513
v -0.866025 0.000000 0.500000
v -0.459398 -0.000486 0.796631
v 0.000000 0.000000 1.000000
v 0.510238 0.000080 0.882981
v 0.866025 0.000000 0.500000
v 1.000000 0.000000 0.000000
v 0.928943 0.007280 -0.537139
v 0.500001 -0.000000 -0.866025
v 0.003897 4.683599 -0.387894
v -0.343377 4.682516 -0.277972
v -0.597565 4.682516 -0.023784
v -0.752081 4.684944 0.324096
v -0.597565 4.682516 0.670670
v -0.343377 4.682516 0.924858
v 0.003919 4.683830 1.044233
v 0.307519 4.677584 0.851921
v 0.605265 4.682516 0.670670
v 0.698305 4.682516 0.323443
v 0.605266 4.682516 -0.023784
v 0.351078 4.682516 -0.277972
v -0.171732 10.116347 -0.448980
v -0.430935 10.112917 -0.453260
v -0.574149 10.115514 -0.232358
v -0.554679 10.117379 -0.001687
v -0.560561 10.116347 0.224490
v -0.396223 10.116347 0.388828
v -0.171733 10.116347 0.448980
v 0.044165 10.112879 0.374534
v 0.217096 10.116347 0.224490
v 0.216763 10.105411 -0.000202
v 0.217096 10.116347 -0.224490
v 0.052758 10.116347 -0.388828
v -0.827858 13.886761 -0.462060
v 2.701566 5.307384 -0.580459
v 2.540326 5.598487 -0.410128
v 2.471599 5.721115 -0.083249
v 2.522907 5.623901 0.269983
v 2.696764 5.317047 0.464304
v 2.838862 5.022579 0.256025
v 2.907589 4.899950 -0.070854
v 2.848618 5.017836 -0.401363
v 0.254270 4.390050 -0.346622
v 0.129964 4.799317 -0.217456
v 0.051931 5.019099 0.198737
v 0.103975 4.842248 0.660979
v 0.241876 4.406350 0.857524
v 0.384855 3.966750 0.673237
v 0.478308 3.717677 0.218959
v 0.397113 3.957810 -0.246171
v 4.133647 6.907843 0.056108
v -0.288809 6.104635 -0.045503
v 0.027859 6.227264 -0.151779
v 0.259711 6.516961 -0.111833
v 0.203453 6.829907 0.115836
v -0.091318 6.871648 0.310560
v -0.395370 6.803173 0.442997
v -0.588077 6.511864 0.375068
v -0.475173 6.272519 0.174637
v -1.253731 7.433886 -1.714278
v -1.027931 7.529855 -1.778355
v -0.828983 7.733025 -1.796648
v -0.907735 7.950042 -1.596107
v -1.101416 8.029180 -1.437189
v -1.293597 7.893100 -1.423943
v -1.555935 7.728658 -1.372428
v -1.438683 7.519346 -1.556077
v -1.929380 9.479349 -2.498509
v 0.566074 5.526184 0.328410
v 0.461166 5.151191 0.519190
v 0.186753 4.848298 0.565066
v -0.205018 4.798722 0.372200
v -0.439669 5.029937 0.081308
v -0.379745 5.406498 -0.137210
v -0.060349 5.707823 -0.155348
v 0.331423 5.757398 0.037518
v -1.103461 7.295225 2.634435
v -1.211382 7.067520 2.732291
v -1.348558 6.825278 2.820308
v -1.654459 6.777031 2.700368
v -1.764272 6.969172 2.472080
v -1.724900 7.216587 2.328506
v -1.504649 7.382261 2.343986
v -1.257636 7.447141 2.443309
v -1.600739 9.134667 4.502789
v -0.572235 6.158145 1.385174
v -0.707649 5.851519 1.490759
v -0.887524 5.604066 1.573889
v -1.211099 5.555430 1.421455
v -1.337330 5.777298 1.195029
v -1.277291 6.039120 1.057552
v -1.093767 6.315011 0.978556
v -0.773052 6.336556 1.148893
v -0.193126 9.181345 -0.152276
v -0.243904 9.398770 0.071409
v 0.055224 9.399654 0.272335
v 0.249444 9.181345 0.152276
v 0.207497 9.031051 -0.049819
v 0.015421 8.989041 -0.260281
v 0.698485 10.728465 -1.160967
v -0.087679 7.758309 0.608666
v 0.168497 7.547512 0.492889
v 0.360740 7.605207 0.232216
v 0.309070 7.874660 0.063366
v 0.084056 8.092353 0.137153
v -0.113634 8.043672 0.399790
v 1.813489 8.894043 1.965715
v 1.342473 4.642962 0.196107
v 1.586670 4.656827 -0.027221
v 1.756555 4.879387 -0.105518
v 1.719255 5.140654 0.016438
v 1.511605 5.149008 0.196227
v 1.342186 4.956799 0.294987
v 3.024043 4.187434 1.653345
v 1.222005 5.018846 -0.292758
v 1.181942 5.136537 -0.065824
v 1.235471 5.246898 0.214172
v 1.517751 5.089938 0.202801
v 1.632560 4.933744 -0.013873
v 1.484687 4.898199 -0.261652
v 2.132153 6.943836 -0.905383
v -0.963818 6.016052 1.322828
v -1.124069 6.143620 1.378953
v -0.939948 6.126473 1.517016
v -0.776828 6.068865 1.604246
v -0.690812 5.951843 1.441912
v -0.798338 5.924016 1.251368
v -0.476146 7.762400 1.009878
v -1.227228 5.936794 1.772491
v -1.031349 6.034932 1.716887
v -0.854934 6.229941 1.682691
v -1.058225 6.412494 1.744838
v -1.297594 6.367119 1.812279
v -1.382095 6.129268 1.826105
v -0.509428 5.948877 3.611330
v -1.519599 6.485003 1.872956
v -1.436005 6.554134 2.041507
v -1.321193 6.610476 1.928982
v -1.187792 6.708473 1.873890
v -1.267995 6.637108 1.722021
v -1.429351 6.533235 1.692819
v -2.271415 7.821762 1.875352
v -1.137439 7.309078 -0.929449
v -1.020630 7.390520 -0.839708
v -0.902293 7.481757 -0.760884
v -0.815200 7.527090 -0.928818
v -0.889226 7.463416 -1.097068
v -1.050346 7.354410 -1.097383
v -1.890090 8.628548 -0.927461
v -0.540530 7.250770 -0.563528
v -0.329681 7.213616 -0.571537
v -0.308487 7.024777 -0.720439
v -0.513324 6.993383 -0.750990
v -0.722704 7.023354 -0.777591
v -0.743897 7.212193 -0.628689
v -0.205339 8.388215 -2.078055
v 0.121072 9.317457 0.298177
v -0.023787 9.500728 0.123991
v -0.271070 9.417017 0.057136
v -0.382023 9.206237 0.127894
v -0.262006 9.046004 0.275092
v 0.000614 9.039571 0.418036
v -0.771267 10.286695 1.723477
v -0.459057 8.338128 0.283963
v -0.300156 8.516045 0.145317
v -0.215038 8.471983 -0.123742
v -0.306528 8.225877 -0.234342
v -0.470592 8.039299 -0.102616
v -0.580474 8.072247 0.186855
v -2.091644 9.425575 -0.607147
v 1.095640 4.586932 -0.110680
v 1.137755 4.788383 -0.266686
v 1.254883 4.990967 -0.312853
v 1.432755 5.060695 -0.110422
v 1.440341 4.876764 0.114604
v 1.271784 4.639882 0.114475
v 2.785264 3.598036 -1.260168
vn 0.5152 0.0140 0.8569
vn 0.5122 0.0592 0.8568
vn 0.0401 0.0515 0.9979
vn -0.0092 -0.0033 1.0000
vn -0.8155 0.0204 0.5784
vn -0.8338 0.0360 0.5509
vn -0.9990 0.0446 0.0090
vn -0.9970 0.0671 -0.0376
vn 0.4993 0.1285 -0.8568
vn 0.5135 0.0712 -0.8551
vn 0.8819 0.0794 -0.4647
vn 0.8546 0.1085 -0.5078
vn -0.5505 0.1225 -0.8258
vn -0.5322 0.0490 -0.8452
vn 0.0320 0.0627 -0.9975
vn -0.0002 0.1405 -0.9901
vn 0.8525 0.0346 0.5216
vn 0.8408 0.0684 0.5371
vn -0.5152 -0.0052 0.8571
vn -0.5096 0.0369 0.8596
vn -0.8293 0.0971 -0.5502
vn -0.8685 0.0445 -0.4937
vn 0.9974 0.0654 0.0303
vn 0.9970 0.0728 0.0275
vn -0.4964 0.1110 0.8610
vn -0.8914 0.0323 0.4521
vn 0.1036 0.0043 -0.9946
vn 0.5154 0.0581 -0.8550
vn -0.9374 -0.0448 -0.3454
vn -0.4729 -0.0382 -0.8803
vn 0.9850 0.1723 -0.0037
vn 0.8614 0.2055 0.4645
vn 0.0706 0.1756 0.9819
vn -0.9996 -0.0236 0.0143
vn 0.9044 0.1390 -0.4035
vn 0.5030 0.1968 0.8416
vn -0.1660 0.9795 -0.1144
vn 0.6596 -0.7515 -0.0078
vn 0.5500 -0.5413 0.6360
vn 0.3737 -0.5934 0.7129
vn 0.4322 -0.9006 0.0465
vn 0.2170 0.0111 0.9761
vn -0.2714 0.6910 0.6700
vn -0.1264 0.7219 0.6803
vn 0.1572 0.0422 0.9867
vn -0.4413 0.8937 -0.0809
vn -0.2791 0.6054 -0.7454
vn -0.2687 0.6271 -0.7311
vn -0.2900 0.9566 -0.0294
vn 0.4978 -0.5323 -0.6847
vn 0.2280 -0.6490 -0.7259
vn 0.1326 0.0133 -0.9911
vn -0.0663 -0.0214 -0.9976
vn 0.6806 0.7307 0.0527
vn 0.3307 -0.6276 -0.7049
vn 0.1994 -0.5015 -0.8419
vn 0.7156 0.0084 -0.6985
vn 0.8206 -0.0284 -0.5708
vn -0.7693 -0.6377 -0.0391
vn -0.8082 -0.5422 -0.2299
vn -0.3738 -0.6689 -0.6425
vn -0.3204 -0.8260 -0.4638
vn 0.1425 0.8737 0.4652
vn 0.1795 0.7750 0.6059
vn -0.2875 0.5972 0.7488
vn -0.3758 0.6842 0.6250
vn 0.7630 0.6449 0.0430
vn 0.7144 0.6996 0.0130
vn -0.8937 -0.0168 0.4484
vn -0.9173 0.0144 0.3980
vn 0.4236 0.8538 -0.3028
vn 0.4818 0.7358 -0.4758
vn 0.9702 0.1936 0.1456
vn 0.8541 0.3657 0.3698
vn 0.7113 -0.1771 0.6802
vn 0.8219 -0.2431 0.5151
vn 0.3140 -0.5699 0.7593
vn 0.2316 -0.6544 0.7199
vn -0.5669 -0.7705 0.2917
vn -0.6531 -0.5632 0.5063
vn -0.9905 -0.1370 -0.0129
vn -0.9050 -0.3515 -0.2397
vn -0.3160 0.6906 -0.6505
vn -0.2426 0.7317 -0.6369
vn -0.8496 0.3303 -0.4113
vn -0.8074 0.1640 -0.5667
vn -0.3609 0.8241 -0.4367
vn 0.3952 0.9139 -0.0927
vn 0.7132 0.4932 0.4982
vn 0.6289 -0.0765 0.7737
vn 0.2874 -0.5820 0.7607
vn -0.4209 -0.8728 0.2472
vn -0.8119 -0.4620 -0.3569
vn -0.2173 0.7811 -0.5854
vn -0.7320 0.1536 -0.6637
vn -0.0579 0.7184 0.6933
vn 0.8656 -0.4244 -0.2658
vn 0.3402 0.7438 -0.5754
vn 0.9438 0.0066 0.3305
vn 0.2508 0.6512 0.7163
vn -0.7796 0.6218 0.0747
vn 0.1004 -0.4883 -0.8669
vn -0.7620 0.0170 -0.6474
vn 0.0357 0.9024 -0.4294
vn 0.6549 0.4154 0.6313
vn 0.6777 0.2735 -0.6825
vn 0.7833 -0.5791 -0.2259
vn 0.1954 -0.8227 0.5339
vn -0.5721 0.7684 0.2868
vn -0.5285 -0.1195 0.8405
vn 0.0016 0.8354 0.5496
vn 0.6558 -0.3112 0.6878
vn 0.6515 0.7544 -0.0800
vn 0.7785 -0.1332 -0.6134
vn 0.2260 -0.8708 -0.4365
vn -0.5359 0.2515 0.8060
vn -0.5244 -0.7695 0.3645
vn 0.9730 -0.2291 0.0286
vn 0.3387 0.8539 -0.3952
vn 0.6483 0.2207 0.7287
vn -0.4152 0.6436 0.6429
vn -0.9026 0.3958 -0.1696
vn 0.4776 -0.3977 -0.7834
vn -0.5615 0.0021 -0.8275
vn 0.9905 -0.1290 -0.0484
vn 0.2195 0.9487 -0.2276
vn 0.4937 0.2086 0.8442
vn -0.4296 0.3763 0.8209
vn -0.8980 0.2825 -0.3373
vn 0.3580 -0.1830 -0.9156
vn -0.3991 -0.0526 -0.9154
vn -0.5386 0.7375 0.4074
vn 0.3200 -0.1224 0.9395
vn 0.2932 0.9445 0.1484
vn 0.9825 0.0901 -0.1629
vn 0.5656 -0.8019 -0.1923
vn -0.8929 -0.1617 0.4202
vn -0.2149 -0.9724 0.0903
vn 0.3522 0.4074 -0.8426
vn -0.5875 0.8090 0.0188
vn 0.6912 0.6724 0.2649
vn 0.3714 0.3298 0.8679
vn -0.1554 0.0270 0.9875
vn -0.3993 -0.1324 -0.9072
vn -0.8716 -0.4902 0.0025
vn 0.3231 0.4022 -0.8566
vn -0.6083 0.7936 0.0142
vn 0.7154 0.6981 -0.0297
vn 0.1756 0.2880 0.9414
vn -0.4383 -0.2466 0.8644
vn -0.4489 -0.1791 -0.8754
vn -0.8497 -0.4850 0.2069
vn -0.6338 -0.3940 -0.6657
vn 0.1666 0.6582 -0.7341
vn 0.0971 -0.6972 -0.7103
vn 0.7755 -0.4740 -0.4171
vn 0.7312 0.5074 0.4559
vn -0.8250 0.5480 0.1381
vn -0.0920 0.8059 0.5849
vn -0.6274 -0.6865 0.3675
vn -0.3354 0.5339 0.7762
vn -0.9798 -0.1337 -0.1485
vn -0.5814 0.6366 -0.5067
vn 0.3579 0.8933 -0.2717
vn 0.2978 -0.5962 0.7456
vn 0.8873 0.2921 0.3569
vn -0.4251 -0.7041 -0.5689
vn -0.7912 0.5351 -0.2960
vn 0.1127 -0.1381 -0.9840
vn 0.4858 0.6737 -0.5568
vn 0.2517 0.8612 0.4416
vn -0.7178 -0.5545 0.4211
vn -0.3028 0.2895 0.9080
vn 0.7457 0.0723 0.6623
vn 0.6648 -0.5397 -0.5166
vn 0.6904 0.7165 -0.0993
vn -0.0587 0.5165 -0.8543
vn -0.5878 -0.1500 -0.7950
vn 0.1589 -0.6947 0.7015
vn -0.5689 -0.8106 -0.1388
vt -1.447833 -1.963463
vt -1.262334 -1.974780
vt -1.085515 -1.974779
vt -0.904494 -1.966676
vt -0.719715 -1.953592
vt -0.543938 -1.938140
vt -0.367403 -1.922862
vt -0.184438 -1.908896
vt -0.000170 -1.892192
vt 0.180385 -1.872847
vt -1.998507 -1.857130
vt -1.815917 -1.903489
vt -1.632077 -1.939045
vt -1.287161 -0.290629
vt -1.156494 -0.298067
vt -1.028113 -0.302413
vt -0.892276 -0.304601
vt -0.758370 -0.303350
vt -0.632059 -0.299435
vt -0.503433 -0.292940
vt -0.378146 -0.283758
vt -0.256870 -0.270686
vt -0.130989 -0.252549
vt -1.670801 -0.242506
vt -1.545940 -0.263136
vt -1.417673 -0.279041
vt -1.132557 1.618309
vt -1.043145 1.614113
vt -0.952329 1.608064
vt -0.872546 1.600455
vt -0.794733 1.592555
vt -0.714906 1.586300
vt -0.634965 1.584786
vt -0.556076 1.590343
vt -0.478045 1.604365
vt -0.403044 1.626584
vt -1.370716 1.636852
vt -1.292897 1.626826
vt -1.212618 1.621329
vt -0.875957 2.926369
vt 1.123164 0.700261
vt 1.167190 0.586878
vt 1.218197 0.466949
vt 1.241647 1.388359
vt 1.176791 1.266207
vt 1.120797 1.140273
vt 1.086765 1.020684
vt 1.078653 0.912510
vt 1.092035 0.807191
vt 0.254484 0.545006
vt 0.291043 0.384609
vt 0.317655 0.210419
vt 0.339395 1.664494
vt 0.269628 1.498496
vt 0.214080 1.319474
vt 0.183371 1.134884
vt 0.183371 0.931147
vt 0.215746 0.722966
vt 1.879003 0.910899
vt 1.975385 -1.963224
vt 1.840968 -1.935812
vt 1.707475 -1.893030
vt 1.566888 -1.839586
vt 2.482171 -1.967086
vt 1.449443 -1.789781
vt 2.358125 -1.972888
vt 2.227109 -1.974780
vt 2.102947 -1.974780
vt 2.089100 -1.190347
vt 2.011195 -1.169715
vt 1.930943 -1.126095
vt 1.849612 -1.066012
vt 1.773519 -1.009701
vt 2.454259 -1.120861
vt 2.370573 -1.140034
vt 2.266527 -1.166963
vt 2.170959 -1.187917
vt 2.219881 -0.402832
vt 1.305926 -1.953095
vt 1.157822 -1.974780
vt 1.007276 -1.974780
vt 0.845224 -1.958452
vt 0.674046 -1.946745
vt 0.508611 -1.944937
vt 0.345881 -1.950308
vt 1.446457 -1.896287
vt 0.183371 -1.952173
vt 1.040528 -0.701554
vt 0.958666 -0.744233
vt 0.871940 -0.790558
vt 0.769908 -0.822347
vt 0.666906 -0.826256
vt 0.575944 -0.803765
vt 0.493277 -0.763803
vt 1.141235 -0.672931
vt 0.407212 -0.721145
vt 0.708015 0.207433
vt 1.152282 -1.342659
vt 1.026459 -1.376263
vt 0.914765 -1.390429
vt 0.792071 -1.395328
vt 0.680259 -1.390499
vt 0.580901 -1.381650
vt 0.464469 -1.368921
vt 1.279541 -1.305315
vt 0.336092 -1.353602
vt 1.439793 2.282944
vt 1.547674 2.257791
vt 1.672948 2.241722
vt 1.112179 2.509349
vt 1.182728 2.424011
vt 1.250500 2.365568
vt 1.339007 2.317019
vt 1.672892 2.962916
vt 0.313402 2.109564
vt 0.264566 1.996504
vt 0.223976 1.888572
vt 0.193947 1.779723
vt 0.183371 1.667480
vt 0.443706 2.311120
vt 0.372727 2.218773
vt 1.109193 1.667480
vt 1.802935 1.843014
vt 1.849761 1.949239
vt 1.885814 2.044548
vt 1.912643 2.142854
vt 1.921765 2.238736
vt 1.685848 1.667480
vt 1.745519 1.742993
vt 1.112179 2.238736
vt 2.238243 0.237721
vt 2.327693 0.222753
vt 2.434122 0.210419
vt 1.881989 0.439972
vt 1.961819 0.359607
vt 2.045265 0.301123
vt 2.139167 0.261548
vt 2.434122 0.989202
vt 2.715001 0.235270
vt 2.779089 0.273134
vt 2.853133 0.305687
vt 2.437108 0.262997
vt 2.498988 0.235033
vt 2.571257 0.210419
vt 2.648560 0.210419
vt 2.585331 0.867003
vt 0.823398 2.538778
vt 0.846878 2.614442
vt 0.870302 2.704387
vt 0.687101 2.314106
vt 0.884357 2.801588
vt 0.746730 2.379642
vt 0.791433 2.456142
vt 0.183371 2.801587
vt 2.428916 2.654320
vt 2.446750 2.722273
vt 2.461265 2.780188
vt 2.329603 2.476650
vt 2.469283 2.840806
vt 2.371968 2.526191
vt 2.404544 2.585919
vt 1.924751 2.840806
vt 2.959433 1.844502
vt 2.975262 1.901334
vt 2.988507 1.959047
vt 2.861685 1.667480
vt 2.998507 2.026491
vt 2.905478 1.719740
vt 2.937449 1.779962
vt 2.459084 2.026491
vt 2.204394 0.029087
vt 2.358441 -0.399846
vt 2.211782 -0.045642
vt 2.222142 -0.129620
vt 2.235398 -0.201833
vt 2.262769 -0.271357
vt 2.308197 -0.342744
vt 2.878581 0.029086
vt 2.554582 1.403928
vt 2.323422 0.992188
vt 2.559349 1.505952
vt 2.393614 1.055393
vt 2.452502 1.119562
vt 2.499099 1.193142
vt 2.535857 1.291308
vt 1.881989 1.505951
vt 2.038320 0.072886
vt 2.201408 -0.399846
vt 1.970759 0.142078
vt 2.199791 -0.299749
vt 2.188121 -0.200574
vt 2.159374 -0.106296
vt 2.106454 -0.010850
vt 1.449443 -0.399846
vt 2.190566 1.723559
vt 2.278210 1.700931
vt 2.359598 1.681828
vt 1.924751 1.867361
vt 2.456098 1.667480
vt 2.003417 1.802588
vt 2.093828 1.755583
vt 2.456098 2.473664
s 1
usemtl Material.001
f 8/8/1 20/21/2 19/20/3 7/7/4
f 5/5/5 17/18/6 16/17/7 4/4/8
f 12/13/9 24/26/10 23/25/11 11/12/12
f 2/2/13 14/15/14 13/14/15 1/1/16
f 9/9/17 21/22/18 20/21/2 8/8/1
f 6/6/19 18/19/20 17/18/6 5/5/5
f 1/1/16 13/14/15 24/26/10 12/13/9
f 3/3/21 15/16/22 14/15/14 2/2/13
f 10/10/23 22/23/24 21/22/18 9/9/17
f 7/7/4 19/20/3 18/19/20 6/6/19
f 4/4/8 16/17/7 15/16/22 3/3/21
f 11/12/12 23/25/11 22/24/24 10/11/23
f 18/19/20 30/32/25 29/31/26 17/18/6
f 13/14/15 25/27/27 36/39/28 24/26/10
f 15/16/22 27/29/29 26/28/30 14/15/14
f 22/23/24 34/36/31 33/35/32 21/22/18
f 19/20/3 31/33/33 30/32/25 18/19/20
f 16/17/7 28/30/34 27/29/29 15/16/22
f 23/25/11 35/38/35 34/37/31 22/24/24
f 20/21/2 32/34/36 31/33/33 19/20/3
f 17/18/6 29/31/26 28/30/34 16/17/7
f 24/26/10 36/39/28 35/38/35 23/25/11
f 14/15/14 26/28/30 25/27/27 13/14/15
f 21/22/18 33/35/32 32/34/36 20/21/2
f 30/32/25 37/40/37 29/31/26
f 25/27/27 37/40/37 36/39/28
f 27/29/29 37/40/37 26/28/30
f 34/36/31 37/40/37 33/35/32
f 31/33/33 37/40/37 30/32/25
f 28/30/34 37/40/37 27/29/29
f 35/38/35 37/40/37 34/37/31
f 32/34/36 37/40/37 31/33/33
f 29/31/26 37/40/37 28/30/34
f 36/39/28 37/40/37 35/38/35
f 26/28/30 37/40/37 25/27/27
f 33/35/32 37/40/37 32/34/36
f 44/48/38 43/47/39 51/56/40 52/57/41
f 42/46/42 41/45/43 49/54/44 50/55/45
f 40/43/46 39/42/47 47/51/48 48/52/49
f 45/49/50 44/48/38 52/57/41 53/58/51
f 43/47/39 42/46/42 50/55/45 51/56/40
f 41/45/43 40/44/46 48/53/49 49/54/44
f 39/42/47 38/41/52 46/50/53 47/51/48
f 38/41/52 45/49/50 53/58/51 46/50/53
f 43/47/39 44/48/38 54/59/54
f 41/45/43 42/46/42 54/59/54
f 39/42/47 40/43/46 54/59/54
f 44/48/38 45/49/50 54/59/54
f 42/46/42 43/47/39 54/59/54
f 40/44/46 41/45/43 54/59/54
f 38/41/52 39/42/47 54/59/54
f 45/49/50 38/41/52 54/59/54
f 56/61/55 64/70/56 65/71/57 57/62/58
f 62/68/59 70/77/60 63/69/61 55/60/62
f 59/64/63 67/74/64 68/75/65 60/66/66
f 57/62/58 65/71/57 66/72/67 58/63/68
f 55/60/62 63/69/61 64/70/56 56/61/55
f 61/67/69 69/76/70 70/77/60 62/68/59
f 60/66/66 68/75/65 69/76/70 61/67/69
f 58/63/68 66/72/67 67/73/64 59/65/63
f 96/105/71 87/95/72 80/88/73 89/98/74
f 90/99/75 81/89/76 82/90/77 91/100/78
f 92/101/79 83/91/80 84/92/81 93/102/82
f 95/104/83 86/94/84 87/96/72 96/106/71
f 89/98/74 80/88/73 81/89/76 90/99/75
f 91/100/78 82/90/77 83/91/80 92/101/79
f 93/102/82 84/92/81 85/93/85 94/103/86
f 94/103/86 85/93/85 86/94/84 95/104/83
f 68/75/65 71/78/87 69/76/70
f 66/72/67 71/78/87 67/73/64
f 64/70/56 71/78/87 65/71/57
f 70/77/60 71/78/87 63/69/61
f 67/74/64 71/78/87 68/75/65
f 65/71/57 71/78/87 66/72/67
f 63/69/61 71/78/87 64/70/56
f 69/76/70 71/78/87 70/77/60
f 79/86/88 96/105/71 89/98/74 72/79/89
f 73/80/90 90/99/75 91/100/78 74/81/91
f 75/82/92 92/101/79 93/102/82 76/83/93
f 78/85/94 95/104/83 96/106/71 79/87/88
f 72/79/89 89/98/74 90/99/75 73/80/90
f 74/81/91 91/100/78 92/101/79 75/82/92
f 76/83/93 93/102/82 94/103/86 77/84/95
f 77/84/95 94/103/86 95/104/83 78/85/94
f 80/88/73 88/97/96 81/89/76
f 82/90/77 88/97/96 83/91/80
f 84/92/81 88/97/96 85/93/85
f 87/95/72 88/97/96 80/88/73
f 81/89/76 88/97/96 82/90/77
f 85/93/85 88/97/96 86/94/84
f 83/91/80 88/97/96 84/92/81
f 86/94/84 88/97/96 87/96/72
f 101/112/97 103/114/98 100/111/99
f 99/109/100 103/114/98 98/108/101
f 102/113/102 103/114/98 101/112/97
f 100/111/99 103/114/98 99/110/100
f 98/108/101 103/114/98 97/107/103
f 97/107/103 103/114/98 102/113/102
f 108/119/104 110/122/105 107/118/106
f 106/117/107 110/122/105 105/116/108
f 109/121/109 110/122/105 108/120/104
f 107/118/106 110/122/105 106/117/107
f 105/116/108 110/122/105 104/115/110
f 104/115/110 110/122/105 109/121/109
f 115/127/111 117/130/112 114/126/113
f 113/125/114 117/130/112 112/124/115
f 116/129/116 117/130/112 115/128/111
f 114/126/113 117/130/112 113/125/114
f 112/124/115 117/130/112 111/123/117
f 111/123/117 117/130/112 116/129/116
f 122/136/118 124/138/119 121/135/120
f 120/133/121 124/138/119 119/132/122
f 123/137/123 124/138/119 122/136/118
f 121/135/120 124/138/119 120/134/121
f 119/132/122 124/138/119 118/131/124
f 118/131/124 124/138/119 123/137/123
f 129/144/125 131/146/126 128/143/127
f 127/141/128 131/146/126 126/140/129
f 130/145/130 131/146/126 129/144/125
f 128/143/127 131/146/126 127/142/128
f 126/140/129 131/146/126 125/139/131
f 125/139/131 131/146/126 130/145/130
f 136/152/132 138/154/133 135/150/134
f 134/149/135 138/154/133 133/148/136
f 137/153/137 138/154/133 136/152/132
f 135/151/134 138/154/133 134/149/135
f 133/148/136 138/154/133 132/147/138
f 132/147/138 138/154/133 137/153/137
f 143/160/139 145/162/140 142/158/141
f 141/157/142 145/162/140 140/156/143
f 144/161/144 145/162/140 143/160/139
f 142/159/141 145/162/140 141/157/142
f 140/156/143 145/162/140 139/155/145
f 139/155/145 145/162/140 144/161/144
f 150/168/146 152/170/147 149/166/148
f 148/165/149 152/170/147 147/164/150
f 151/169/151 152/170/147 150/168/146
f 149/167/148 152/170/147 148/165/149
f 147/164/150 152/170/147 146/163/152
f 146/163/152 152/170/147 151/169/151
f 157/176/153 159/178/154 156/175/155
f 155/174/156 159/178/154 154/173/157
f 158/177/158 159/178/154 157/176/153
f 156/175/155 159/178/154 155/174/156
f 154/173/157 159/178/154 153/171/159
f 153/172/159 159/178/154 158/177/158
f 164/184/160 166/186/161 163/183/162
f 162/182/163 166/186/161 161/180/164
f 165/185/165 166/186/161 164/184/160
f 163/183/162 166/186/161 162/182/163
f 161/181/164 166/186/161 160/179/166
f 160/179/166 166/186/161 165/185/165
f 171/192/167 173/194/168 170/191/169
f 169/190/170 173/194/168 168/188/171
f 172/193/172 173/194/168 171/192/167
f 170/191/169 173/194/168 169/190/170
f 168/189/171 173/194/168 167/187/173
f 167/187/173 173/194/168 172/193/172
f 178/200/174 180/202/175 177/198/176
f 176/197/177 180/202/175 175/196/178
f 179/201/179 180/202/175 178/200/174
f 177/199/176 180/202/175 176/197/177
f 175/196/178 180/202/175 174/195/180
f 174/195/180 180/202/175 179/201/179
